<?xml version="1.0" encoding="iso-8859-1"?>
<!-- Uploaded to: SVG Repo, www.svgrepo.com, Generator: SVG Repo Mixer Tools -->
<svg fill="#000" height="800px" width="800px" version="1.1" id="Layer_1" xmlns="http://www.w3.org/2000/svg" xmlns:xlink="http://www.w3.org/1999/xlink" 
	 viewBox="0 0 330 330" xml:space="preserve">
<path id="XMLID_24_" d="M315,0H15C6.716,0,0,6.716,0,15v300c0,8.284,6.716,15,15,15h300c8.284,0,15-6.716,15-15V15
	C330,6.716,323.284,0,315,0z M255.606,135.606l-79.998,80c-2.813,2.813-6.628,4.394-10.606,4.394c-3.979,0-7.793-1.58-10.607-4.394
	l-80.002-80c-5.858-5.857-5.858-15.355,0-21.213c5.857-5.858,15.355-5.858,21.213,0l69.396,69.393l69.392-69.393
	c5.857-5.858,15.355-5.858,21.213,0C261.465,120.251,261.465,129.749,255.606,135.606z"/>
</svg>