<!DOCTYPE svg PUBLIC "-//W3C//DTD SVG 1.1//EN" "http://www.w3.org/Graphics/SVG/1.1/DTD/svg11.dtd">

<!-- Uploaded to: SVG Repo, www.svgrepo.com, Transformed by: SVG Repo Mixer Tools -->
<svg fill="rgb(212 212 216 / 1)" height="800px" width="800px" version="1.1" id="Capa_1" xmlns="http://www.w3.org/2000/svg" xmlns:xlink="http://www.w3.org/1999/xlink" viewBox="0 0 238.687 238.687" xml:space="preserve">

<g id="SVGRepo_bgCarrier" stroke-width="0"/>

<g id="SVGRepo_tracerCarrier" stroke-linecap="round" stroke-linejoin="round"/>

<g id="SVGRepo_iconCarrier"> <path d="M9.287,104.344h220.114c3.039,0,5.808,1.135,7.595,3.11c0.874,0.965,1.871,2.556,1.664,4.641l-10.773,108.326 c-0.372,3.742-4.438,6.923-9.258,6.923H22.96c-4.721,0-8.78-3.103-9.243-6.766L0.044,112.143c-0.266-2.106,0.712-3.691,1.579-4.676 C3.38,105.475,6.245,104.344,9.287,104.344z M31.01,89.344V71.198c0-5.216,4.427-9.854,9.642-9.854h157.383 c5.216,0,8.976,4.639,8.976,9.854v18.146h20V47.605c0-4.143-2.606-7.262-6.749-7.262H132.01v-4.467 c0-14.037-9.021-24.533-20.723-24.533H31.793c-11.701,0-20.783,10.496-20.783,24.533v53.467H31.01z"/> </g>

</svg>