<?xml version="1.0" ?>

<!-- Uploaded to: SVG Repo, www.svgrepo.com, Generator: SVG Repo Mixer Tools -->
<svg width="800px" height="800px" viewBox="0 -17.64 228.97 228.97" xmlns="http://www.w3.org/2000/svg">
#000000
<defs>

<style>.cls-1{fill:#ffc742;}.cls-2{fill:#f7ead0;}.cls-2,.cls-9{opacity:0.5;}.cls-3,.cls-7{fill:#ffffff;}.cls-4{fill:#275563;}.cls-5{fill:#efa536;}.cls-6,.cls-7{opacity:0.7;}.cls-8{fill:#908152;}.cls-10,.cls-9{fill:#d9f0ff;}</style>

</defs>

<title/>

<g data-name="Layer 2" id="Layer_2">

<g data-name="Layer 1" id="Layer_1-2">

<rect class="cls-1" height="149" rx="10" ry="10" width="220.97" x="2.99" y="39.67"/>

<rect class="cls-2" height="10.95" width="218.95" x="7.04" y="43.92"/>

<polyline class="cls-3" points="60.21 43.33 61.09 112.15 89.47 88.32 117.86 111.4 117.86 43.05"/>

<path class="cls-4" d="M120.84,123.32,88.41,90.89,56.08,122.06V41.17a4,4,0,1,1,8,0v62.06L88.51,79.67,112.84,104V40.89a4,4,0,0,1,8,0Z"/>

<rect class="cls-5" height="9.06" width="221" x="3.87" y="176.54"/>

<g class="cls-6">

<path class="cls-3" d="M19.82,96.15a3,3,0,0,1-3-3V82a3,3,0,0,1,6,0V93.15A3,3,0,0,1,19.82,96.15Z"/>

<path class="cls-3" d="M19.82,75.57a3,3,0,0,1-3-3V66.52a3,3,0,0,1,6,0v6.05A3,3,0,0,1,19.82,75.57Z"/>

</g>

<circle class="cls-7" cx="19.78" cy="105.71" r="3.54"/>

<path class="cls-4" d="M215,193.68H14a14,14,0,0,1-14-14v-129a14,14,0,0,1,14-14H215a14,14,0,0,1,14,14V84.83a4,4,0,1,1-8,0V50.68a6,6,0,0,0-6-6H14a6,6,0,0,0-6,6v129a6,6,0,0,0,6,6H215a6,6,0,0,0,6-6V139.83a4,4,0,0,1,8,0v39.86A14,14,0,0,1,215,193.68Z"/>

<ellipse class="cls-8" cx="171.89" cy="59.04" rx="43.58" ry="43.66"/>

<circle class="cls-3" cx="172.24" cy="48.12" r="43.66"/>

<path class="cls-9" d="M216.6,47.78a43.66,43.66,0,1,1-85.06-13.86c3.58,20.17,22.14,38.32,41.4,38.32s36.84-14.6,41.4-38.32A43.42,43.42,0,0,1,216.6,47.78Z"/>

<path class="cls-10" d="M216.23,47.11a43.66,43.66,0,1,1-87.31,0,44.17,44.17,0,0,1,.37-5.69,43.66,43.66,0,0,0,86.57,0A44.2,44.2,0,0,1,216.23,47.11Z"/>

<path class="cls-4" d="M172,95.31a47.66,47.66,0,1,1,47.66-47.66A47.71,47.71,0,0,1,172,95.31ZM172,8a39.66,39.66,0,1,0,39.66,39.66A39.7,39.7,0,0,0,172,8Z"/>

<path class="cls-4" d="M161.12,47.68a3.22,3.22,0,0,1,.59-2,1.86,1.86,0,0,1,1.56-.8H169V39a2,2,0,0,1,.86-1.59,3.16,3.16,0,0,1,2-.7,3,3,0,0,1,2,.7,2.06,2.06,0,0,1,.81,1.59v5.91h5.72a2,2,0,0,1,1.56.82,2.92,2.92,0,0,1,.7,2,2.86,2.86,0,0,1-.67,2,2.05,2.05,0,0,1-1.59.77h-5.72v6A2,2,0,0,1,174,58a3.27,3.27,0,0,1-2.08.61,3.41,3.41,0,0,1-2.08-.61,1.91,1.91,0,0,1-.84-1.62v-6h-5.77a1.9,1.9,0,0,1-1.56-.74A3.08,3.08,0,0,1,161.12,47.68Z"/>

<path class="cls-4" d="M224.49,125.64a4,4,0,0,1-4-4v-7.31a4,4,0,0,1,8,0v7.31A4,4,0,0,1,224.49,125.64Z"/>

<path class="cls-4" d="M224.49,105.64a4,4,0,0,1-4-4v-.31a4,4,0,0,1,8,0v.31A4,4,0,0,1,224.49,105.64Z"/>

</g>

</g>

</svg>